<?xml version="1.0" encoding="UTF-8"?>
<svg width="16px" height="16px" viewBox="0 0 16 16" version="1.1" xmlns="http://www.w3.org/2000/svg" xmlns:xlink="http://www.w3.org/1999/xlink">
    <title>99FBBB32-5F1E-48FC-B2B2-0630927AC419</title>
    <g id="Icons" stroke="none" stroke-width="1" fill="none" fill-rule="evenodd">
        <g id="Amenities-Icons-SVG" transform="translate(-56.000000, -1342.000000)" fill="#25282D" fill-rule="nonzero">
            <path d="M63.9999809,1357.75 C68.2801831,1357.75 71.7499624,1354.28022 71.7499624,1350.00001 C71.7499624,1345.71981 68.2801831,1342.25003 63.9999809,1342.25003 C59.7197787,1342.25003 56.2499994,1345.71981 56.2499994,1350.00001 C56.2499994,1354.28022 59.7197787,1357.75 63.9999809,1357.75 Z M63.9999809,1356.75 C60.2917378,1356.75 57.249997,1353.7483 57.249997,1350.00001 C57.249997,1346.2918 60.2516988,1343.25003 63.9999809,1343.25003 C67.708224,1343.25003 70.7499648,1346.25173 70.7499648,1350.00001 C70.7499648,1353.70823 67.748263,1356.75 63.9999809,1356.75 Z M62.7859335,1353.75223 L68.4259042,1348.15749 C68.5729376,1348.01165 68.5739141,1347.77422 68.4280404,1347.62719 L68.1639419,1347.36092 C68.0180988,1347.21389 67.7806726,1347.21297 67.6336393,1347.35882 L62.5261075,1352.42536 L60.3706256,1350.25246 C60.2247824,1350.10542 59.9873257,1350.10448 59.8402924,1350.25032 L59.5740576,1350.51442 C59.4270243,1350.66026 59.4260783,1350.89769 59.5719214,1351.04472 L62.2556003,1353.7501 C62.4014435,1353.89713 62.6389002,1353.89808 62.7859335,1353.75223 Z" id="c"></path>
        </g>
    </g>
</svg>