<svg width="48" height="48" viewBox="0 0 48 48" fill="none" xmlns="http://www.w3.org/2000/svg">
<rect width="48" height="48" rx="24" fill="black" fill-opacity="0.6"/>
<path d="M18.8253 31.4795H18.041C18.8985 35.0193 19.8855 36.7227 22.5115 39.2801C25.048 40.5413 26.3786 40.1888 28.5897 37.869C29.966 35.7224 30.9803 33.895 31.4916 31.4795H29.8054C29.1755 33.6383 28.6662 34.8002 27.4133 36.8498C25.1831 38.878 24.0178 39.0839 22.0801 37.673C20.3427 35.7403 19.6331 34.381 18.8253 31.4795Z" fill="white" stroke="white" stroke-width="0.0784289"/>
<path d="M18.9816 15.879H18.1973C18.805 13.6489 19.3897 12.4131 20.8638 10.2344C22.0224 8.717 22.8401 8.2348 24.6677 8C27.1325 8.28345 28.3317 9.2819 30.1577 12.6255H31.9615L29.295 15.879L26.7068 12.6255H28.2754C26.9736 10.3532 26.1085 9.66329 24.3539 9.37197C21.8388 9.62615 20.6679 11.0806 18.9816 15.879Z" fill="white" stroke="white" stroke-width="0.0784289"/>
<mask id="path-4-inside-1_2857_2684" fill="white">
<path d="M36.5864 17.4475C36.5864 18.3138 35.8841 19.0161 35.0178 19.0161C34.1515 19.0161 33.4492 18.3138 33.4492 17.4475C33.4492 16.5812 34.1515 15.8789 35.0178 15.8789C35.8841 15.8789 36.5864 16.5812 36.5864 17.4475ZM34.2335 17.4475C34.2335 17.8806 34.5846 18.2318 35.0178 18.2318C35.4509 18.2318 35.8021 17.8806 35.8021 17.4475C35.8021 17.0143 35.4509 16.6632 35.0178 16.6632C34.5846 16.6632 34.2335 17.0143 34.2335 17.4475Z"/>
</mask>
<path d="M36.5864 17.4475C36.5864 18.3138 35.8841 19.0161 35.0178 19.0161C34.1515 19.0161 33.4492 18.3138 33.4492 17.4475C33.4492 16.5812 34.1515 15.8789 35.0178 15.8789C35.8841 15.8789 36.5864 16.5812 36.5864 17.4475ZM34.2335 17.4475C34.2335 17.8806 34.5846 18.2318 35.0178 18.2318C35.4509 18.2318 35.8021 17.8806 35.8021 17.4475C35.8021 17.0143 35.4509 16.6632 35.0178 16.6632C34.5846 16.6632 34.2335 17.0143 34.2335 17.4475Z" fill="white" stroke="white" stroke-width="0.156858" mask="url(#path-4-inside-1_2857_2684)"/>
<mask id="path-5-outside-2_2857_2684" maskUnits="userSpaceOnUse" x="13.9199" y="16.7822" width="20" height="9" fill="black">
<rect fill="white" x="13.9199" y="16.7822" width="20" height="9"/>
<path d="M17.2104 24.882C16.678 24.882 16.2039 24.7905 15.788 24.6075C15.3744 24.4222 15.0476 24.1679 14.8076 23.8446C14.5699 23.519 14.4475 23.1435 14.4404 22.7181H15.9947C16.0042 22.8964 16.0625 23.0532 16.1694 23.1887C16.2787 23.3218 16.4237 23.4252 16.6043 23.4988C16.785 23.5725 16.9882 23.6094 17.2139 23.6094C17.4492 23.6094 17.6572 23.5678 17.8378 23.4846C18.0184 23.4014 18.1598 23.2861 18.262 23.1388C18.3642 22.9914 18.4153 22.8215 18.4153 22.629C18.4153 22.4341 18.3607 22.2618 18.2513 22.1121C18.1444 21.96 17.9899 21.8411 17.7879 21.7556C17.5883 21.67 17.3506 21.6272 17.0749 21.6272H16.394V20.4936H17.0749C17.3078 20.4936 17.5134 20.4532 17.6916 20.3724C17.8723 20.2916 18.0125 20.1799 18.1123 20.0373C18.2121 19.8923 18.262 19.7236 18.262 19.5311C18.262 19.3481 18.2181 19.1876 18.1301 19.0498C18.0446 18.9096 17.9234 18.8002 17.7665 18.7218C17.612 18.6434 17.4314 18.6042 17.2246 18.6042C17.0155 18.6042 16.8242 18.6422 16.6507 18.7182C16.4772 18.7919 16.3381 18.8977 16.2336 19.0355C16.129 19.1734 16.0732 19.335 16.066 19.5204H14.5866C14.5937 19.0997 14.7137 18.7289 14.9466 18.4081C15.1795 18.0872 15.4933 17.8365 15.8878 17.6559C16.2847 17.4729 16.7327 17.3814 17.2318 17.3814C17.7356 17.3814 18.1765 17.4729 18.5544 17.6559C18.9322 17.8389 19.2258 18.0861 19.4349 18.3974C19.6464 18.7064 19.751 19.0533 19.7486 19.4384C19.751 19.8471 19.6238 20.1882 19.3672 20.4615C19.1129 20.7348 18.7813 20.9083 18.3725 20.982V21.039C18.9097 21.1079 19.3184 21.2945 19.5989 21.5987C19.8817 21.9006 20.0219 22.2784 20.0196 22.7324C20.0219 23.1483 19.9019 23.5179 19.6595 23.8411C19.4195 24.1643 19.0879 24.4186 18.6649 24.604C18.2418 24.7894 17.757 24.882 17.2104 24.882ZM23.9312 24.882C23.5557 24.8797 23.1933 24.8167 22.8439 24.6931C22.4969 24.5695 22.1856 24.3687 21.9099 24.0906C21.6342 23.8126 21.4155 23.4442 21.2539 22.9855C21.0947 22.5268 21.0151 21.9635 21.0151 21.2957C21.0174 20.6825 21.0876 20.1347 21.2254 19.6523C21.3656 19.1674 21.5653 18.7563 21.8243 18.4188C22.0857 18.0813 22.3983 17.8246 22.7619 17.6488C23.1255 17.4705 23.5331 17.3814 23.9847 17.3814C24.4719 17.3814 24.9021 17.4765 25.2752 17.6666C25.6483 17.8543 25.9478 18.1098 26.1736 18.433C26.4017 18.7563 26.5396 19.1187 26.5871 19.5204H25.0649C25.0054 19.2661 24.8807 19.0664 24.6905 18.9214C24.5004 18.7765 24.2651 18.704 23.9847 18.704C23.5093 18.704 23.1481 18.9108 22.9009 19.3243C22.6561 19.7378 22.5314 20.2999 22.5266 21.0105H22.5765C22.6858 20.7942 22.8332 20.61 23.0186 20.4579C23.2063 20.3035 23.419 20.1858 23.6567 20.105C23.8967 20.0218 24.1498 19.9802 24.416 19.9802C24.8486 19.9802 25.2336 20.0824 25.5711 20.2868C25.9086 20.4888 26.1747 20.7669 26.3696 21.121C26.5645 21.4751 26.6619 21.8804 26.6619 22.3367C26.6619 22.831 26.5467 23.2707 26.3161 23.6557C26.088 24.0407 25.7683 24.3425 25.3572 24.5612C24.9484 24.7775 24.4731 24.8844 23.9312 24.882ZM23.9241 23.67C24.1617 23.67 24.3744 23.6129 24.5622 23.4988C24.7499 23.3848 24.8973 23.2303 25.0042 23.0354C25.1112 22.8405 25.1647 22.6219 25.1647 22.3794C25.1647 22.137 25.1112 21.9196 25.0042 21.7271C24.8997 21.5346 24.7547 21.3813 24.5693 21.2672C24.3839 21.1531 24.1724 21.0961 23.9348 21.0961C23.7565 21.0961 23.5913 21.1293 23.4392 21.1959C23.2895 21.2624 23.1576 21.3551 23.0435 21.474C22.9318 21.5928 22.8439 21.7306 22.7797 21.8875C22.7155 22.042 22.6835 22.2071 22.6835 22.383C22.6835 22.6183 22.7369 22.8334 22.8439 23.0283C22.9532 23.2232 23.1006 23.3788 23.2859 23.4953C23.4737 23.6117 23.6864 23.67 23.9241 23.67ZM30.619 24.9426C30.0059 24.9403 29.4783 24.7894 29.0362 24.4899C28.5965 24.1904 28.2579 23.7567 28.0202 23.1887C27.7849 22.6207 27.6685 21.9374 27.6708 21.1388C27.6708 20.3427 27.7885 19.6641 28.0238 19.1033C28.2614 18.5424 28.6001 18.1158 29.0398 17.8234C29.4818 17.5287 30.0083 17.3814 30.619 17.3814C31.2298 17.3814 31.7551 17.5287 32.1948 17.8234C32.6368 18.1181 32.9767 18.5459 33.2143 19.1068C33.452 19.6653 33.5696 20.3427 33.5673 21.1388C33.5673 21.9398 33.4484 22.6242 33.2108 23.1923C32.9755 23.7603 32.638 24.194 32.1983 24.4935C31.7586 24.7929 31.2322 24.9426 30.619 24.9426ZM30.619 23.6628C31.0373 23.6628 31.3713 23.4525 31.6208 23.0318C31.8703 22.6112 31.9939 21.9802 31.9916 21.1388C31.9916 20.5851 31.9345 20.124 31.8204 19.7556C31.7087 19.3873 31.5495 19.1104 31.3427 18.925C31.1383 18.7396 30.8971 18.6469 30.619 18.6469C30.2031 18.6469 29.8704 18.8549 29.6209 19.2708C29.3713 19.6867 29.2454 20.3094 29.243 21.1388C29.243 21.6997 29.2988 22.1679 29.4105 22.5434C29.5246 22.9166 29.685 23.197 29.8918 23.3848C30.0986 23.5701 30.341 23.6628 30.619 23.6628Z"/>
</mask>
<path d="M17.2104 24.882C16.678 24.882 16.2039 24.7905 15.788 24.6075C15.3744 24.4222 15.0476 24.1679 14.8076 23.8446C14.5699 23.519 14.4475 23.1435 14.4404 22.7181H15.9947C16.0042 22.8964 16.0625 23.0532 16.1694 23.1887C16.2787 23.3218 16.4237 23.4252 16.6043 23.4988C16.785 23.5725 16.9882 23.6094 17.2139 23.6094C17.4492 23.6094 17.6572 23.5678 17.8378 23.4846C18.0184 23.4014 18.1598 23.2861 18.262 23.1388C18.3642 22.9914 18.4153 22.8215 18.4153 22.629C18.4153 22.4341 18.3607 22.2618 18.2513 22.1121C18.1444 21.96 17.9899 21.8411 17.7879 21.7556C17.5883 21.67 17.3506 21.6272 17.0749 21.6272H16.394V20.4936H17.0749C17.3078 20.4936 17.5134 20.4532 17.6916 20.3724C17.8723 20.2916 18.0125 20.1799 18.1123 20.0373C18.2121 19.8923 18.262 19.7236 18.262 19.5311C18.262 19.3481 18.2181 19.1876 18.1301 19.0498C18.0446 18.9096 17.9234 18.8002 17.7665 18.7218C17.612 18.6434 17.4314 18.6042 17.2246 18.6042C17.0155 18.6042 16.8242 18.6422 16.6507 18.7182C16.4772 18.7919 16.3381 18.8977 16.2336 19.0355C16.129 19.1734 16.0732 19.335 16.066 19.5204H14.5866C14.5937 19.0997 14.7137 18.7289 14.9466 18.4081C15.1795 18.0872 15.4933 17.8365 15.8878 17.6559C16.2847 17.4729 16.7327 17.3814 17.2318 17.3814C17.7356 17.3814 18.1765 17.4729 18.5544 17.6559C18.9322 17.8389 19.2258 18.0861 19.4349 18.3974C19.6464 18.7064 19.751 19.0533 19.7486 19.4384C19.751 19.8471 19.6238 20.1882 19.3672 20.4615C19.1129 20.7348 18.7813 20.9083 18.3725 20.982V21.039C18.9097 21.1079 19.3184 21.2945 19.5989 21.5987C19.8817 21.9006 20.0219 22.2784 20.0196 22.7324C20.0219 23.1483 19.9019 23.5179 19.6595 23.8411C19.4195 24.1643 19.0879 24.4186 18.6649 24.604C18.2418 24.7894 17.757 24.882 17.2104 24.882ZM23.9312 24.882C23.5557 24.8797 23.1933 24.8167 22.8439 24.6931C22.4969 24.5695 22.1856 24.3687 21.9099 24.0906C21.6342 23.8126 21.4155 23.4442 21.2539 22.9855C21.0947 22.5268 21.0151 21.9635 21.0151 21.2957C21.0174 20.6825 21.0876 20.1347 21.2254 19.6523C21.3656 19.1674 21.5653 18.7563 21.8243 18.4188C22.0857 18.0813 22.3983 17.8246 22.7619 17.6488C23.1255 17.4705 23.5331 17.3814 23.9847 17.3814C24.4719 17.3814 24.9021 17.4765 25.2752 17.6666C25.6483 17.8543 25.9478 18.1098 26.1736 18.433C26.4017 18.7563 26.5396 19.1187 26.5871 19.5204H25.0649C25.0054 19.2661 24.8807 19.0664 24.6905 18.9214C24.5004 18.7765 24.2651 18.704 23.9847 18.704C23.5093 18.704 23.1481 18.9108 22.9009 19.3243C22.6561 19.7378 22.5314 20.2999 22.5266 21.0105H22.5765C22.6858 20.7942 22.8332 20.61 23.0186 20.4579C23.2063 20.3035 23.419 20.1858 23.6567 20.105C23.8967 20.0218 24.1498 19.9802 24.416 19.9802C24.8486 19.9802 25.2336 20.0824 25.5711 20.2868C25.9086 20.4888 26.1747 20.7669 26.3696 21.121C26.5645 21.4751 26.6619 21.8804 26.6619 22.3367C26.6619 22.831 26.5467 23.2707 26.3161 23.6557C26.088 24.0407 25.7683 24.3425 25.3572 24.5612C24.9484 24.7775 24.4731 24.8844 23.9312 24.882ZM23.9241 23.67C24.1617 23.67 24.3744 23.6129 24.5622 23.4988C24.7499 23.3848 24.8973 23.2303 25.0042 23.0354C25.1112 22.8405 25.1647 22.6219 25.1647 22.3794C25.1647 22.137 25.1112 21.9196 25.0042 21.7271C24.8997 21.5346 24.7547 21.3813 24.5693 21.2672C24.3839 21.1531 24.1724 21.0961 23.9348 21.0961C23.7565 21.0961 23.5913 21.1293 23.4392 21.1959C23.2895 21.2624 23.1576 21.3551 23.0435 21.474C22.9318 21.5928 22.8439 21.7306 22.7797 21.8875C22.7155 22.042 22.6835 22.2071 22.6835 22.383C22.6835 22.6183 22.7369 22.8334 22.8439 23.0283C22.9532 23.2232 23.1006 23.3788 23.2859 23.4953C23.4737 23.6117 23.6864 23.67 23.9241 23.67ZM30.619 24.9426C30.0059 24.9403 29.4783 24.7894 29.0362 24.4899C28.5965 24.1904 28.2579 23.7567 28.0202 23.1887C27.7849 22.6207 27.6685 21.9374 27.6708 21.1388C27.6708 20.3427 27.7885 19.6641 28.0238 19.1033C28.2614 18.5424 28.6001 18.1158 29.0398 17.8234C29.4818 17.5287 30.0083 17.3814 30.619 17.3814C31.2298 17.3814 31.7551 17.5287 32.1948 17.8234C32.6368 18.1181 32.9767 18.5459 33.2143 19.1068C33.452 19.6653 33.5696 20.3427 33.5673 21.1388C33.5673 21.9398 33.4484 22.6242 33.2108 23.1923C32.9755 23.7603 32.638 24.194 32.1983 24.4935C31.7586 24.7929 31.2322 24.9426 30.619 24.9426ZM30.619 23.6628C31.0373 23.6628 31.3713 23.4525 31.6208 23.0318C31.8703 22.6112 31.9939 21.9802 31.9916 21.1388C31.9916 20.5851 31.9345 20.124 31.8204 19.7556C31.7087 19.3873 31.5495 19.1104 31.3427 18.925C31.1383 18.7396 30.8971 18.6469 30.619 18.6469C30.2031 18.6469 29.8704 18.8549 29.6209 19.2708C29.3713 19.6867 29.2454 20.3094 29.243 21.1388C29.243 21.6997 29.2988 22.1679 29.4105 22.5434C29.5246 22.9166 29.685 23.197 29.8918 23.3848C30.0986 23.5701 30.341 23.6628 30.619 23.6628Z" fill="white"/>
<path d="M15.788 24.6075L15.7559 24.6791L15.7564 24.6793L15.788 24.6075ZM14.8076 23.8446L14.7442 23.8909L14.7446 23.8914L14.8076 23.8446ZM14.4404 22.7181V22.6397H14.3607L14.362 22.7194L14.4404 22.7181ZM15.9947 22.7181L16.073 22.7139L16.0691 22.6397H15.9947V22.7181ZM16.1694 23.1887L16.1078 23.2373L16.1088 23.2385L16.1694 23.1887ZM16.6043 23.4988L16.5747 23.5715L16.5747 23.5715L16.6043 23.4988ZM17.8378 23.4846L17.805 23.4133L17.805 23.4133L17.8378 23.4846ZM18.262 23.1388L18.3265 23.1835L18.3265 23.1835L18.262 23.1388ZM18.2513 22.1121L18.1872 22.1572L18.188 22.1583L18.2513 22.1121ZM17.7879 21.7556L17.757 21.8277L17.7573 21.8278L17.7879 21.7556ZM16.394 21.6272H16.3156V21.7057H16.394V21.6272ZM16.394 20.4936V20.4152H16.3156V20.4936H16.394ZM17.6916 20.3724L17.6596 20.3008L17.6593 20.3009L17.6916 20.3724ZM18.1123 20.0373L18.1766 20.0823L18.1769 20.0818L18.1123 20.0373ZM18.1301 19.0498L18.0632 19.0906L18.064 19.092L18.1301 19.0498ZM17.7665 18.7218L17.731 18.7917L17.7314 18.792L17.7665 18.7218ZM16.6507 18.7182L16.6813 18.7904L16.6822 18.7901L16.6507 18.7182ZM16.2336 19.0355L16.2961 19.0829L16.2961 19.0829L16.2336 19.0355ZM16.066 19.5204V19.5988H16.1415L16.1444 19.5234L16.066 19.5204ZM14.5866 19.5204L14.5082 19.519L14.5068 19.5988H14.5866V19.5204ZM14.9466 18.4081L15.0101 18.4542L15.0101 18.4542L14.9466 18.4081ZM15.8878 17.6559L15.9204 17.7272L15.9206 17.7271L15.8878 17.6559ZM18.5544 17.6559L18.5885 17.5853L18.5885 17.5853L18.5544 17.6559ZM19.4349 18.3974L19.3698 18.4411L19.3702 18.4417L19.4349 18.3974ZM19.7486 19.4384L19.6702 19.4379L19.6702 19.4388L19.7486 19.4384ZM19.3672 20.4615L19.31 20.4078L19.3097 20.4081L19.3672 20.4615ZM18.3725 20.982L18.3586 20.9048L18.2941 20.9164V20.982H18.3725ZM18.3725 21.039H18.2941V21.108L18.3626 21.1168L18.3725 21.039ZM19.5989 21.5987L19.5412 21.6519L19.5417 21.6524L19.5989 21.5987ZM20.0196 22.7324L19.9411 22.732L19.9411 22.7328L20.0196 22.7324ZM19.6595 23.8411L19.5968 23.794L19.5965 23.7943L19.6595 23.8411ZM18.6649 24.604L18.6334 24.5321L18.6334 24.5321L18.6649 24.604ZM17.2104 24.882V24.8036C16.687 24.8036 16.2239 24.7137 15.8195 24.5358L15.788 24.6075L15.7564 24.6793C16.1838 24.8674 16.669 24.9605 17.2104 24.9605V24.882ZM15.788 24.6075L15.82 24.536C15.4172 24.3554 15.1016 24.109 14.8706 23.7979L14.8076 23.8446L14.7446 23.8914C14.9936 24.2267 15.3317 24.4889 15.7559 24.6791L15.788 24.6075ZM14.8076 23.8446L14.8709 23.7984C14.6434 23.4866 14.5257 23.127 14.5188 22.7168L14.4404 22.7181L14.362 22.7194C14.3694 23.1601 14.4965 23.5515 14.7442 23.8909L14.8076 23.8446ZM14.4404 22.7181V22.7965H15.9947V22.7181V22.6397H14.4404V22.7181ZM15.9947 22.7181L15.9164 22.7223C15.9267 22.9161 15.9905 23.0886 16.1078 23.2373L16.1694 23.1887L16.231 23.1401C16.1344 23.0178 16.0817 22.8766 16.073 22.7139L15.9947 22.7181ZM16.1694 23.1887L16.1088 23.2385C16.2274 23.3829 16.3836 23.4935 16.5747 23.5715L16.6043 23.4988L16.634 23.4262C16.4638 23.3568 16.33 23.2607 16.23 23.1389L16.1694 23.1887ZM16.6043 23.4988L16.5747 23.5715C16.7661 23.6495 16.9796 23.6878 17.2139 23.6878V23.6094V23.5309C16.9967 23.5309 16.8038 23.4955 16.634 23.4262L16.6043 23.4988ZM17.2139 23.6094V23.6878C17.4585 23.6878 17.678 23.6445 17.8706 23.5558L17.8378 23.4846L17.805 23.4133C17.6364 23.491 17.4399 23.5309 17.2139 23.5309V23.6094ZM17.8378 23.4846L17.8706 23.5558C18.0625 23.4674 18.2154 23.3436 18.3265 23.1835L18.262 23.1388L18.1976 23.0941C18.1042 23.2287 17.9743 23.3354 17.805 23.4133L17.8378 23.4846ZM18.262 23.1388L18.3265 23.1835C18.4385 23.022 18.4938 22.8362 18.4938 22.629H18.4153H18.3369C18.3369 22.8068 18.29 22.9608 18.1976 23.0941L18.262 23.1388ZM18.4153 22.629H18.4938C18.4938 22.4184 18.4343 22.2297 18.3147 22.0658L18.2513 22.1121L18.188 22.1583C18.287 22.2939 18.3369 22.4498 18.3369 22.629H18.4153ZM18.2513 22.1121L18.3155 22.067C18.1987 21.9009 18.0315 21.7736 17.8185 21.6834L17.7879 21.7556L17.7573 21.8278C17.9483 21.9087 18.0901 22.0191 18.1872 22.1572L18.2513 22.1121ZM17.7879 21.7556L17.8188 21.6835C17.6071 21.5928 17.3585 21.5488 17.0749 21.5488V21.6272V21.7057C17.3427 21.7057 17.5694 21.7473 17.757 21.8277L17.7879 21.7556ZM17.0749 21.6272V21.5488H16.394V21.6272V21.7057H17.0749V21.6272ZM16.394 21.6272H16.4724V20.4936H16.394H16.3156V21.6272H16.394ZM16.394 20.4936V20.572H17.0749V20.4936V20.4152H16.394V20.4936ZM17.0749 20.4936V20.572C17.3169 20.572 17.5339 20.53 17.724 20.4438L17.6916 20.3724L17.6593 20.3009C17.4929 20.3764 17.2987 20.4152 17.0749 20.4152V20.4936ZM17.6916 20.3724L17.7237 20.444C17.9154 20.3582 18.0675 20.238 18.1766 20.0823L18.1123 20.0373L18.0481 19.9923C17.9574 20.1218 17.8291 20.225 17.6596 20.3008L17.6916 20.3724ZM18.1123 20.0373L18.1769 20.0818C18.2866 19.9225 18.3405 19.7379 18.3405 19.5311H18.262H18.1836C18.1836 19.7092 18.1377 19.8621 18.0477 19.9928L18.1123 20.0373ZM18.262 19.5311H18.3405C18.3405 19.3349 18.2932 19.1595 18.1963 19.0076L18.1301 19.0498L18.064 19.092C18.143 19.2157 18.1836 19.3612 18.1836 19.5311H18.262ZM18.1301 19.0498L18.1971 19.0089C18.1033 18.8553 17.9707 18.7362 17.8016 18.6517L17.7665 18.7218L17.7314 18.792C17.8761 18.8643 17.9858 18.9638 18.0632 19.0906L18.1301 19.0498ZM17.7665 18.7218L17.802 18.6519C17.6346 18.5669 17.4414 18.5257 17.2246 18.5257V18.6042V18.6826C17.4214 18.6826 17.5895 18.7199 17.731 18.7917L17.7665 18.7218ZM17.2246 18.6042V18.5257C17.0058 18.5257 16.8036 18.5656 16.6192 18.6464L16.6507 18.7182L16.6822 18.7901C16.8447 18.7188 17.0252 18.6826 17.2246 18.6826V18.6042ZM16.6507 18.7182L16.62 18.6461C16.4351 18.7246 16.2847 18.8384 16.1711 18.9881L16.2336 19.0355L16.2961 19.0829C16.3916 18.9569 16.5193 18.8593 16.6813 18.7904L16.6507 18.7182ZM16.2336 19.0355L16.1711 18.9881C16.0561 19.1397 15.9954 19.3171 15.9877 19.5173L16.066 19.5204L16.1444 19.5234C16.151 19.3528 16.2019 19.207 16.2961 19.0829L16.2336 19.0355ZM16.066 19.5204V19.4419H14.5866V19.5204V19.5988H16.066V19.5204ZM14.5866 19.5204L14.665 19.5217C14.6719 19.1161 14.7872 18.7612 15.0101 18.4542L14.9466 18.4081L14.8832 18.362C14.6402 18.6967 14.5155 19.0833 14.5082 19.519L14.5866 19.5204ZM14.9466 18.4081L15.0101 18.4542C15.2343 18.1453 15.537 17.9027 15.9204 17.7272L15.8878 17.6559L15.8551 17.5846C15.4495 17.7703 15.1247 18.0292 14.8832 18.362L14.9466 18.4081ZM15.8878 17.6559L15.9206 17.7271C16.3058 17.5495 16.7424 17.4598 17.2318 17.4598V17.3814V17.303C16.7229 17.303 16.2635 17.3963 15.8549 17.5847L15.8878 17.6559ZM17.2318 17.3814V17.4598C17.7261 17.4598 18.1549 17.5496 18.5202 17.7265L18.5544 17.6559L18.5885 17.5853C18.1981 17.3962 17.7451 17.303 17.2318 17.303V17.3814ZM18.5544 17.6559L18.5202 17.7265C18.8871 17.9042 19.1693 18.1427 19.3698 18.4411L19.4349 18.3974L19.5 18.3537C19.2822 18.0295 18.9774 17.7736 18.5885 17.5853L18.5544 17.6559ZM19.4349 18.3974L19.3702 18.4417C19.5724 18.7371 19.6725 19.0684 19.6702 19.4379L19.7486 19.4384L19.827 19.4388C19.8295 19.0383 19.7204 18.6756 19.4996 18.3531L19.4349 18.3974ZM19.7486 19.4384L19.6702 19.4388C19.6725 19.8295 19.5516 20.1505 19.31 20.4078L19.3672 20.4615L19.4243 20.5152C19.6961 20.2258 19.8295 19.8648 19.827 19.4379L19.7486 19.4384ZM19.3672 20.4615L19.3097 20.4081C19.0683 20.6676 18.7527 20.8338 18.3586 20.9048L18.3725 20.982L18.3865 21.0592C18.81 20.9828 19.1574 20.8021 19.4246 20.5149L19.3672 20.4615ZM18.3725 20.982H18.2941V21.039H18.3725H18.451V20.982H18.3725ZM18.3725 21.039L18.3626 21.1168C18.8871 21.1841 19.2767 21.365 19.5412 21.6519L19.5989 21.5987L19.6566 21.5456C19.3602 21.2241 18.9322 21.0318 18.3825 20.9612L18.3725 21.039ZM19.5989 21.5987L19.5417 21.6524C19.8094 21.9381 19.9434 22.296 19.9411 22.732L20.0196 22.7324L20.098 22.7328C20.1005 22.2609 19.954 21.8631 19.6561 21.5451L19.5989 21.5987ZM20.0196 22.7324L19.9411 22.7328C19.9434 23.1322 19.8286 23.4849 19.5968 23.794L19.6595 23.8411L19.7222 23.8881C19.9752 23.5508 20.1005 23.1644 20.098 22.7319L20.0196 22.7324ZM19.6595 23.8411L19.5965 23.7943C19.3658 24.1051 19.0458 24.3514 18.6334 24.5321L18.6649 24.604L18.6964 24.6758C19.13 24.4858 19.4731 24.2235 19.7225 23.8878L19.6595 23.8411ZM18.6649 24.604L18.6334 24.5321C18.2219 24.7124 17.7481 24.8036 17.2104 24.8036V24.882V24.9605C17.7659 24.9605 18.2617 24.8663 18.6964 24.6758L18.6649 24.604ZM23.9312 24.882L23.9307 24.9605L23.9309 24.9605L23.9312 24.882ZM22.8439 24.6931L22.8176 24.767L22.8177 24.767L22.8439 24.6931ZM21.9099 24.0906L21.8542 24.1458L21.8542 24.1458L21.9099 24.0906ZM21.2539 22.9855L21.1798 23.0112L21.1799 23.0116L21.2539 22.9855ZM21.0151 21.2957L20.9366 21.2954V21.2957H21.0151ZM21.2254 19.6523L21.1501 19.6305L21.15 19.6307L21.2254 19.6523ZM21.8243 18.4188L21.7623 18.3708L21.7621 18.371L21.8243 18.4188ZM22.7619 17.6488L22.796 17.7194L22.7964 17.7192L22.7619 17.6488ZM25.2752 17.6666L25.2396 17.7365L25.2399 17.7366L25.2752 17.6666ZM26.1736 18.433L26.1093 18.478L26.1095 18.4783L26.1736 18.433ZM26.5871 19.5204V19.5988H26.6753L26.665 19.5111L26.5871 19.5204ZM25.0649 19.5204L24.9885 19.5382L25.0026 19.5988H25.0649V19.5204ZM22.9009 19.3243L22.8336 19.284L22.8334 19.2843L22.9009 19.3243ZM22.5266 21.0105L22.4482 21.01L22.4477 21.0889H22.5266V21.0105ZM22.5765 21.0105V21.0889H22.6247L22.6465 21.0459L22.5765 21.0105ZM23.0186 20.4579L23.0683 20.5186L23.0684 20.5185L23.0186 20.4579ZM23.6567 20.105L23.6819 20.1793L23.6824 20.1791L23.6567 20.105ZM25.5711 20.2868L25.5304 20.3539L25.5308 20.3541L25.5711 20.2868ZM26.3161 23.6557L26.2489 23.6154L26.2487 23.6157L26.3161 23.6557ZM25.3572 24.5612L25.3939 24.6305L25.394 24.6304L25.3572 24.5612ZM24.5622 23.4988L24.6029 23.5659L24.6029 23.5659L24.5622 23.4988ZM25.0042 23.0354L25.073 23.0731L25.073 23.0731L25.0042 23.0354ZM25.0042 21.7271L24.9353 21.7645L24.9357 21.7652L25.0042 21.7271ZM24.5693 21.2672L24.6104 21.2004L24.6104 21.2004L24.5693 21.2672ZM23.4392 21.1959L23.4078 21.124L23.4074 21.1242L23.4392 21.1959ZM23.0435 21.474L22.9869 21.4196L22.9864 21.4202L23.0435 21.474ZM22.7797 21.8875L22.8521 21.9176L22.8523 21.9172L22.7797 21.8875ZM22.8439 23.0283L22.7751 23.066L22.7755 23.0666L22.8439 23.0283ZM23.2859 23.4953L23.2442 23.5617L23.2446 23.5619L23.2859 23.4953ZM23.9312 24.882L23.9317 24.8036C23.5648 24.8013 23.2111 24.7398 22.87 24.6192L22.8439 24.6931L22.8177 24.767C23.1755 24.8936 23.5466 24.958 23.9307 24.9605L23.9312 24.882ZM22.8439 24.6931L22.8702 24.6192C22.535 24.4998 22.2335 24.3057 21.9656 24.0354L21.9099 24.0906L21.8542 24.1458C22.1376 24.4317 22.4588 24.6392 22.8176 24.767L22.8439 24.6931ZM21.9099 24.0906L21.9656 24.0354C21.6998 23.7673 21.4866 23.4098 21.3279 22.9594L21.2539 22.9855L21.1799 23.0116C21.3445 23.4786 21.5686 23.8578 21.8542 24.1458L21.9099 24.0906ZM21.2539 22.9855L21.328 22.9598C21.1725 22.5118 21.0935 21.9578 21.0935 21.2957H21.0151H20.9366C20.9366 21.9692 21.0169 22.5418 21.1798 23.0112L21.2539 22.9855ZM21.0151 21.2957L21.0935 21.296C21.0958 20.6885 21.1653 20.148 21.3008 19.6738L21.2254 19.6523L21.15 19.6307C21.0098 20.1214 20.939 20.6766 20.9366 21.2954L21.0151 21.2957ZM21.2254 19.6523L21.3007 19.6741C21.4387 19.1969 21.6344 18.795 21.8865 18.4665L21.8243 18.4188L21.7621 18.371C21.4961 18.7176 21.2925 19.138 21.1501 19.6305L21.2254 19.6523ZM21.8243 18.4188L21.8863 18.4668C22.1408 18.1384 22.4439 17.8897 22.796 17.7194L22.7619 17.6488L22.7277 17.5782C22.3526 17.7596 22.0307 18.0243 21.7623 18.3708L21.8243 18.4188ZM22.7619 17.6488L22.7964 17.7192C23.1481 17.5468 23.5437 17.4598 23.9847 17.4598V17.3814V17.303C23.5225 17.303 23.1029 17.3942 22.7274 17.5783L22.7619 17.6488ZM23.9847 17.3814V17.4598C24.4615 17.4598 24.8791 17.5528 25.2396 17.7365L25.2752 17.6666L25.3108 17.5967C24.925 17.4001 24.4822 17.303 23.9847 17.303V17.3814ZM25.2752 17.6666L25.2399 17.7366C25.6022 17.9189 25.8914 18.166 26.1093 18.478L26.1736 18.433L26.2378 18.3881C26.0042 18.0536 25.6945 17.7898 25.3104 17.5965L25.2752 17.6666ZM26.1736 18.433L26.1095 18.4783C26.3299 18.7906 26.4632 19.1406 26.5092 19.5296L26.5871 19.5204L26.665 19.5111C26.6159 19.0968 26.4735 18.722 26.2376 18.3878L26.1736 18.433ZM26.5871 19.5204V19.4419H25.0649V19.5204V19.5988H26.5871V19.5204ZM25.0649 19.5204L25.1412 19.5025C25.0781 19.2322 24.9441 19.0161 24.7381 18.8591L24.6905 18.9214L24.643 18.9838C24.8173 19.1167 24.9328 19.2999 24.9885 19.5382L25.0649 19.5204ZM24.6905 18.9214L24.7381 18.8591C24.532 18.702 24.2792 18.6256 23.9847 18.6256V18.704V18.7824C24.251 18.7824 24.4688 18.851 24.643 18.9838L24.6905 18.9214ZM23.9847 18.704V18.6256C23.4813 18.6256 23.0947 18.8472 22.8336 19.284L22.9009 19.3243L22.9682 19.3645C23.2015 18.9743 23.5374 18.7824 23.9847 18.7824V18.704ZM22.9009 19.3243L22.8334 19.2843C22.579 19.7142 22.453 20.2917 22.4482 21.01L22.5266 21.0105L22.605 21.011C22.6097 20.3081 22.7333 19.7614 22.9684 19.3642L22.9009 19.3243ZM22.5266 21.0105V21.0889H22.5765V21.0105V20.9321H22.5266V21.0105ZM22.5765 21.0105L22.6465 21.0459C22.751 20.8392 22.8915 20.6637 23.0683 20.5186L23.0186 20.4579L22.9688 20.3973C22.7749 20.5564 22.6207 20.7492 22.5065 20.9751L22.5765 21.0105ZM23.0186 20.4579L23.0684 20.5185C23.2486 20.3702 23.4529 20.2571 23.6819 20.1793L23.6567 20.105L23.6314 20.0308C23.3851 20.1145 23.164 20.2367 22.9687 20.3974L23.0186 20.4579ZM23.6567 20.105L23.6824 20.1791C23.9138 20.0989 24.1582 20.0587 24.416 20.0587V19.9802V19.9018C24.1415 19.9018 23.8797 19.9447 23.631 20.0309L23.6567 20.105ZM24.416 19.9802V20.0587C24.8357 20.0587 25.2064 20.1576 25.5304 20.3539L25.5711 20.2868L25.6117 20.2197C25.2608 20.0072 24.8615 19.9018 24.416 19.9018V19.9802ZM25.5711 20.2868L25.5308 20.3541C25.856 20.5488 26.1125 20.8165 26.3009 21.1588L26.3696 21.121L26.4383 21.0832C26.2369 20.7173 25.9611 20.4289 25.6114 20.2195L25.5711 20.2868ZM26.3696 21.121L26.3009 21.1588C26.4886 21.4999 26.5835 21.8918 26.5835 22.3367H26.6619H26.7404C26.7404 21.8689 26.6404 21.4503 26.4383 21.0832L26.3696 21.121ZM26.6619 22.3367H26.5835C26.5835 22.8183 26.4714 23.2438 26.2489 23.6154L26.3161 23.6557L26.3834 23.696C26.622 23.2976 26.7404 22.8437 26.7404 22.3367H26.6619ZM26.3161 23.6557L26.2487 23.6157C26.0282 23.9878 25.7193 24.2798 25.3204 24.492L25.3572 24.5612L25.394 24.6304C25.8173 24.4053 26.1478 24.0936 26.3836 23.6957L26.3161 23.6557ZM25.3572 24.5612L25.3205 24.4919C24.9249 24.7012 24.4627 24.8059 23.9315 24.8036L23.9312 24.882L23.9309 24.9605C24.4834 24.9629 24.9719 24.8538 25.3939 24.6305L25.3572 24.5612ZM23.9241 23.67V23.7484C24.1749 23.7484 24.4019 23.688 24.6029 23.5659L24.5622 23.4988L24.5215 23.4318C24.347 23.5378 24.1486 23.5915 23.9241 23.5915V23.67ZM24.5622 23.4988L24.6029 23.5659C24.8026 23.4446 24.9595 23.2799 25.073 23.0731L25.0042 23.0354L24.9355 22.9977C24.8351 23.1806 24.6973 23.325 24.5215 23.4318L24.5622 23.4988ZM25.0042 23.0354L25.073 23.0731C25.1869 22.8657 25.2431 22.6338 25.2431 22.3794H25.1647H25.0862C25.0862 22.6099 25.0355 22.8154 24.9355 22.9977L25.0042 23.0354ZM25.1647 22.3794H25.2431C25.2431 22.1251 25.1869 21.8943 25.0728 21.689L25.0042 21.7271L24.9357 21.7652C25.0355 21.9449 25.0862 22.149 25.0862 22.3794H25.1647ZM25.0042 21.7271L25.0732 21.6896C24.9621 21.4852 24.8076 21.3217 24.6104 21.2004L24.5693 21.2672L24.5282 21.334C24.7018 21.4408 24.8373 21.584 24.9353 21.7645L25.0042 21.7271ZM24.5693 21.2672L24.6104 21.2004C24.4116 21.078 24.1856 21.0176 23.9348 21.0176V21.0961V21.1745C24.1593 21.1745 24.3563 21.2282 24.5282 21.334L24.5693 21.2672ZM23.9348 21.0961V21.0176C23.7465 21.0176 23.5705 21.0528 23.4078 21.124L23.4392 21.1959L23.4707 21.2677C23.6121 21.2058 23.7665 21.1745 23.9348 21.1745V21.0961ZM23.4392 21.1959L23.4074 21.1242C23.2483 21.1949 23.108 21.2935 22.9869 21.4196L23.0435 21.474L23.1001 21.5283C23.2072 21.4167 23.3307 21.3299 23.4711 21.2676L23.4392 21.1959ZM23.0435 21.474L22.9864 21.4202C22.8678 21.5463 22.7748 21.6924 22.7071 21.8578L22.7797 21.8875L22.8523 21.9172C22.913 21.7689 22.9958 21.6392 23.1007 21.5277L23.0435 21.474ZM22.7797 21.8875L22.7073 21.8574C22.639 22.0219 22.605 22.1974 22.605 22.383H22.6835H22.7619C22.7619 22.2169 22.7921 22.062 22.8521 21.9176L22.7797 21.8875ZM22.6835 22.383H22.605C22.605 22.6307 22.6615 22.8589 22.7751 23.066L22.8439 23.0283L22.9126 22.9905C22.8124 22.8079 22.7619 22.6059 22.7619 22.383H22.6835ZM22.8439 23.0283L22.7755 23.0666C22.8911 23.2727 23.0475 23.4381 23.2442 23.5617L23.2859 23.4953L23.3277 23.4289C23.1536 23.3195 23.0153 23.1736 22.9123 22.9899L22.8439 23.0283ZM23.2859 23.4953L23.2446 23.5619C23.4457 23.6867 23.6729 23.7484 23.9241 23.7484V23.67V23.5915C23.6999 23.5915 23.5017 23.5368 23.3273 23.4286L23.2859 23.4953ZM30.619 24.9426L30.6187 25.0211H30.619V24.9426ZM29.0362 24.4899L28.9921 24.5547L28.9922 24.5548L29.0362 24.4899ZM28.0202 23.1887L27.9477 23.2187L27.9478 23.219L28.0202 23.1887ZM27.6708 21.1388L27.7493 21.1391V21.1388H27.6708ZM28.0238 19.1033L27.9515 19.0727L27.9514 19.0729L28.0238 19.1033ZM29.0398 17.8234L29.0832 17.8888L29.0833 17.8887L29.0398 17.8234ZM32.1948 17.8234L32.1511 17.8886L32.1513 17.8887L32.1948 17.8234ZM33.2143 19.1068L33.1421 19.1374L33.1422 19.1375L33.2143 19.1068ZM33.5673 21.1388L33.4888 21.1386V21.1388H33.5673ZM33.2108 23.1923L33.1384 23.162L33.1383 23.1622L33.2108 23.1923ZM32.1983 24.4935L32.2425 24.5583L32.2425 24.5583L32.1983 24.4935ZM31.6208 23.0318L31.6883 23.0718L31.6883 23.0718L31.6208 23.0318ZM31.9916 21.1388L31.9131 21.1388L31.9131 21.1391L31.9916 21.1388ZM31.8204 19.7556L31.7454 19.7784L31.7455 19.7788L31.8204 19.7556ZM31.3427 18.925L31.29 18.9831L31.2904 18.9834L31.3427 18.925ZM29.6209 19.2708L29.5536 19.2305L29.5536 19.2305L29.6209 19.2708ZM29.243 21.1388L29.1645 21.1386V21.1388H29.243ZM29.4105 22.5434L29.3354 22.5658L29.3355 22.5664L29.4105 22.5434ZM29.8918 23.3848L29.8391 23.4428L29.8394 23.4432L29.8918 23.3848ZM30.619 24.9426L30.6194 24.8642C30.0194 24.8619 29.5075 24.7144 29.0802 24.425L29.0362 24.4899L28.9922 24.5548C29.449 24.8643 29.9924 25.0186 30.6187 25.0211L30.619 24.9426ZM29.0362 24.4899L29.0804 24.4251C28.6551 24.1354 28.3253 23.7147 28.0925 23.1584L28.0202 23.1887L27.9478 23.219C28.1904 23.7987 28.538 24.2454 28.9921 24.5547L29.0362 24.4899ZM28.0202 23.1887L28.0927 23.1587C27.8623 22.6027 27.7469 21.9302 27.7493 21.1391L27.6708 21.1388L27.5924 21.1386C27.59 21.9446 27.7075 22.6387 27.9477 23.2187L28.0202 23.1887ZM27.6708 21.1388H27.7493C27.7493 20.35 27.8659 19.6824 28.0961 19.1336L28.0238 19.1033L27.9514 19.0729C27.7111 19.6459 27.5924 20.3353 27.5924 21.1388H27.6708ZM28.0238 19.1033L28.096 19.1339C28.3286 18.5849 28.6582 18.1713 29.0832 17.8888L29.0398 17.8234L28.9963 17.7581C28.542 18.0602 28.1943 18.4999 27.9515 19.0727L28.0238 19.1033ZM29.0398 17.8234L29.0833 17.8887C29.5106 17.6038 30.0214 17.4598 30.619 17.4598V17.3814V17.303C29.9951 17.303 29.4531 17.4537 28.9963 17.7582L29.0398 17.8234ZM30.619 17.3814V17.4598C31.2168 17.4598 31.7262 17.6038 32.1511 17.8886L32.1948 17.8234L32.2384 17.7583C31.7839 17.4537 31.2429 17.303 30.619 17.303V17.3814ZM32.1948 17.8234L32.1513 17.8887C32.5788 18.1737 32.9095 18.5885 33.1421 19.1374L33.2143 19.1068L33.2865 19.0762C33.0438 18.5034 32.6949 18.0626 32.2383 17.7582L32.1948 17.8234ZM33.2143 19.1068L33.1422 19.1375C33.3746 19.6837 33.4912 20.3499 33.4888 21.1386L33.5673 21.1388L33.6457 21.1391C33.6481 20.3354 33.5294 19.6469 33.2865 19.0761L33.2143 19.1068ZM33.5673 21.1388H33.4888C33.4888 21.9324 33.3711 22.606 33.1384 23.162L33.2108 23.1923L33.2831 23.2225C33.5258 22.6425 33.6457 21.9472 33.6457 21.1388H33.5673ZM33.2108 23.1923L33.1383 23.1622C32.9079 23.7184 32.5793 24.1391 32.1542 24.4286L32.1983 24.4935L32.2425 24.5583C32.6966 24.249 33.043 23.8021 33.2832 23.2223L33.2108 23.1923ZM32.1983 24.4935L32.1542 24.4286C31.7294 24.7179 31.2189 24.8642 30.619 24.8642V24.9426V25.0211C31.2455 25.0211 31.7879 24.8679 32.2425 24.5583L32.1983 24.4935ZM30.619 23.6628V23.7413C31.0702 23.7413 31.4274 23.5116 31.6883 23.0718L31.6208 23.0318L31.5533 22.9918C31.3151 23.3934 31.0045 23.5844 30.619 23.5844V23.6628ZM31.6208 23.0318L31.6883 23.0718C31.9485 22.6331 32.0724 21.9852 32.07 21.1386L31.9916 21.1388L31.9131 21.1391C31.9155 21.9752 31.7922 22.5892 31.5533 22.9918L31.6208 23.0318ZM31.9916 21.1388H32.07C32.07 20.5803 32.0125 20.1108 31.8954 19.7324L31.8204 19.7556L31.7455 19.7788C31.8565 20.1372 31.9131 20.5898 31.9131 21.1388H31.9916ZM31.8204 19.7556L31.8955 19.7329C31.7812 19.3559 31.6159 19.0646 31.3951 18.8666L31.3427 18.925L31.2904 18.9834C31.4831 19.1562 31.6363 19.4187 31.7454 19.7784L31.8204 19.7556ZM31.3427 18.925L31.3954 18.8669C31.1765 18.6683 30.9164 18.5685 30.619 18.5685V18.6469V18.7254C30.8778 18.7254 31.1002 18.8109 31.29 18.9831L31.3427 18.925ZM30.619 18.6469V18.5685C30.1706 18.5685 29.8145 18.7956 29.5536 19.2305L29.6209 19.2708L29.6881 19.3112C29.9263 18.9142 30.2357 18.7254 30.619 18.7254V18.6469ZM29.6209 19.2708L29.5536 19.2305C29.2933 19.6643 29.1669 20.3039 29.1645 21.1386L29.243 21.1388L29.3214 21.1391C29.3238 20.3149 29.4493 19.7091 29.6881 19.3112L29.6209 19.2708ZM29.243 21.1388H29.1645C29.1645 21.7043 29.2208 22.1806 29.3354 22.5658L29.4105 22.5434L29.4857 22.5211C29.3769 22.1552 29.3214 21.6951 29.3214 21.1388H29.243ZM29.4105 22.5434L29.3355 22.5664C29.4522 22.9479 29.6185 23.2425 29.8391 23.4428L29.8918 23.3848L29.9445 23.3267C29.7516 23.1515 29.597 22.8852 29.4855 22.5205L29.4105 22.5434ZM29.8918 23.3848L29.8394 23.4432C30.0606 23.6415 30.3217 23.7413 30.619 23.7413V23.6628V23.5844C30.3603 23.5844 30.1365 23.4988 29.9442 23.3264L29.8918 23.3848Z" fill="white" mask="url(#path-5-outside-2_2857_2684)"/>
<path d="M14.2358 23.9527L14.4319 23.3255C12.2898 23.6331 11.2313 23.9492 9.56931 24.7758C7.75262 25.9413 7.52547 26.6095 8.82423 27.8334C10.2171 28.7524 11.2164 29.1628 13.4123 29.7149C16.236 30.4249 17.4517 30.4205 20.3141 30.5773V32.5373L23.4904 29.8717L20.3141 27.2454V28.8918C17.7251 28.8187 16.2566 28.6703 13.7653 28.0686C11.8872 27.7347 11.1381 27.3218 10.236 26.3046C10.0757 25.2991 10.963 24.7927 14.2358 23.9527Z" fill="white"/>
<path d="M24.4319 30.6165V29.0094C27.6082 29.0094 33.059 28.4606 35.3335 27.755C37.6079 27.0494 38.1549 26.5194 37.3726 25.4422C36.3391 24.6199 35.4438 24.2943 33.3728 23.9135L33.6865 23.2471C35.3953 23.5917 36.247 23.8326 37.5687 24.3446C39.1331 25.0316 40 25.7558 40 26.7358C40 27.7158 37.5295 29.7541 31.2552 30.3029C24.9809 30.8517 24.4319 30.6165 24.4319 30.6165Z" fill="white"/>
<path d="M14.2358 23.9527L14.4319 23.3255C12.2898 23.6331 11.2313 23.9492 9.56931 24.7758C7.75262 25.9413 7.52547 26.6095 8.82423 27.8334C10.2171 28.7524 11.2164 29.1628 13.4123 29.7149C16.236 30.4249 17.4517 30.4205 20.3141 30.5773V32.5373L23.4904 29.8717L20.3141 27.2454V28.8918C17.7251 28.8187 16.2566 28.6703 13.7653 28.0686C11.8872 27.7347 11.1381 27.3218 10.236 26.3046C10.0757 25.2991 10.963 24.7927 14.2358 23.9527Z" stroke="white" stroke-width="0.0784289"/>
<path d="M24.4319 30.6165V29.0094C27.6082 29.0094 33.059 28.4606 35.3335 27.755C37.6079 27.0494 38.1549 26.5194 37.3726 25.4422C36.3391 24.6199 35.4438 24.2943 33.3728 23.9135L33.6865 23.2471C35.3953 23.5917 36.247 23.8326 37.5687 24.3446C39.1331 25.0316 40 25.7558 40 26.7358C40 27.7158 37.5295 29.7541 31.2552 30.3029C24.9809 30.8517 24.4319 30.6165 24.4319 30.6165Z" stroke="white" stroke-width="0.0784289"/>
</svg>
