<svg xmlns="http://www.w3.org/2000/svg" width="12" height="16" viewBox="0 0 12 16">
    <path fill="#25282D" fill-rule="nonzero" d="M6.219 16c.208 0 .39-.065.547-.195.156-.13.234-.2.234-.211.51-.584 1.057-1.25 1.64-2a23.374 23.374 0 0 0 1.626-2.383c.5-.839.914-1.693 1.242-2.563.328-.87.492-1.72.492-2.554a6.88 6.88 0 0 0-.398-2.344 5.763 5.763 0 0 0-1.157-1.945A5.396 5.396 0 0 0 8.578.485C7.838.16 7 0 6.063 0a5.74 5.74 0 0 0-2.336.484 6.204 6.204 0 0 0-1.93 1.32A6.342 6.342 0 0 0 .484 3.75 5.794 5.794 0 0 0 0 6.094c0 .864.18 1.729.54 2.593.358.865.806 1.706 1.343 2.524.536.818 1.12 1.596 1.75 2.336.63.74 1.216 1.422 1.758 2.047 0 .01.075.08.226.21a.82.82 0 0 0 .555.196h.047zm-.032-1.016l-.03-.03-.032-.032-.266-.297c-.51-.594-1.052-1.232-1.625-1.914a21.986 21.986 0 0 1-1.578-2.125A13.482 13.482 0 0 1 1.47 8.344C1.156 7.584 1 6.834 1 6.094c0-.688.135-1.341.406-1.961.271-.62.636-1.162 1.094-1.625.458-.464.995-.83 1.61-1.102A4.79 4.79 0 0 1 6.061 1c.855 0 1.592.146 2.211.438a4.49 4.49 0 0 1 1.54 1.156 4.68 4.68 0 0 1 .898 1.633c.193.609.289 1.231.289 1.867 0 .562-.099 1.169-.297 1.82a11.427 11.427 0 0 1-.89 2.078c-.396.735-.891 1.513-1.485 2.336a35.929 35.929 0 0 1-2.078 2.594c0 .01-.008.02-.023.031a.256.256 0 0 0-.04.031zm-.171-5.968c.833 0 1.541-.292 2.125-.875a2.893 2.893 0 0 0 .875-2.125 2.9 2.9 0 0 0-.875-2.118 2.88 2.88 0 0 0-2.125-.882c-.823 0-1.529.294-2.118.882a2.888 2.888 0 0 0-.882 2.118c0 .833.294 1.541.882 2.125a2.9 2.9 0 0 0 2.118.875zm0-1a1.94 1.94 0 0 1-1.422-.594A1.94 1.94 0 0 1 4 6c0-.552.195-1.023.586-1.414C4.976 4.196 5.448 4 6 4c.552 0 1.023.195 1.414.586.39.39.586.862.586 1.414 0 .552-.193 1.026-.578 1.422a1.889 1.889 0 0 1-1.406.594z"/>
</svg>
