<?xml version="1.0" encoding="UTF-8"?>
<svg width="141px" height="34px" viewBox="0 0 141 34" version="1.1" xmlns="http://www.w3.org/2000/svg" xmlns:xlink="http://www.w3.org/1999/xlink">
    <title>DB063971-1E6B-4E0F-B18C-FB3A0623EF31</title>
    <g id="All-Address-Logo" stroke="none" stroke-width="1" fill="none" fill-rule="evenodd">
        <g id="Address-Hotels-Logo---Web" transform="translate(-37.000000, -849.000000)" fill="#FFFFFF">
            <g id="address-SkyViews-logo-W" transform="translate(37.000000, 849.000000)">
                <path d="M34.000255,-8.5e-05 L34.000255,33.999915 L0.000255,33.999915 L0.000255,-8.5e-05 L34.000255,-8.5e-05 Z M83.6857975,25.9780759 L85.4549929,29.7886506 L87.1221194,25.9780759 L88.9159814,25.9780759 L85.8283952,32.7401449 L85.114763,32.7401449 L81.8740734,25.9780759 L83.6857975,25.9780759 Z M110.615248,25.9777357 L112.180306,29.6607242 L113.897616,25.9777357 L115.233018,25.9777357 L116.951179,29.6607242 L118.507731,25.9777357 L120.268421,25.9777357 L117.3518,32.7398047 L116.637317,32.7398047 L114.561064,28.3848621 L112.495018,32.7398047 L111.780535,32.7398047 L108.846053,25.9777357 L110.615248,25.9777357 Z M49.8157424,25.8928483 C50.5302251,25.8928483 51.2872366,26.071469 52.0782711,26.4116989 L52.0782711,26.4116989 L52.0782711,27.7130782 C51.1936734,27.3133081 50.4876964,27.1185265 49.9603401,27.1185265 C49.6626389,27.1185265 49.424478,27.1687104 49.2458573,27.2707794 C49.0672366,27.3728483 48.9821791,27.5097909 48.9821791,27.6705495 C48.9821791,27.7981357 49.0417194,27.9257219 49.1693056,28.0371472 C49.2968918,28.1477219 49.6030987,28.2999748 50.096432,28.4785955 C50.5897653,28.6572161 50.9810297,28.8273311 51.2787309,28.9804345 C51.5679263,29.1343886 51.8230987,29.3546874 52.0527539,29.6362276 C52.2653975,29.9169173 52.3759722,30.2741587 52.3759722,30.7071012 C52.3759722,31.319515 52.1378113,31.8128483 51.6699952,32.1785955 C51.2021791,32.5443426 50.5812596,32.731469 49.8157424,32.731469 C48.9906849,32.731469 48.1826389,32.5188253 47.4086159,32.0850322 L47.4086159,32.0850322 L47.4086159,30.647561 C47.8509148,30.9461127 48.2421791,31.1664116 48.5909148,31.3025035 C48.9396504,31.439446 49.3053975,31.5066414 49.6881561,31.5066414 C50.3430987,31.5066414 50.6663171,31.3025035 50.6663171,30.8942276 C50.6663171,30.7496299 50.5982711,30.6228943 50.4706849,30.4944575 C50.3430987,30.3762276 50.028386,30.2222736 49.526547,30.0436529 C49.0332136,29.873538 48.6334435,29.7042736 48.3442481,29.5503196 C48.046547,29.3972161 47.7998803,29.1760667 47.5872366,28.8953771 C47.3745929,28.6146874 47.272524,28.2497909 47.272524,27.8066414 C47.272524,27.2367564 47.5021791,26.7689403 47.9614895,26.4202047 C48.4207998,26.071469 49.0417194,25.8928483 49.8157424,25.8928483 Z M58.5849975,25.9776506 L58.5849975,28.9801794 L60.7114343,25.9776506 L62.5401699,25.9776506 L60.3626987,29.1162713 L63.3141929,32.647007 L61.2302849,32.647007 L58.5849975,29.5253978 L58.5849975,32.647007 L56.9263768,32.647007 L56.9263768,25.9776506 L58.5849975,25.9776506 Z M94.8697493,25.9780759 L94.8697493,32.6474322 L93.2119791,32.6474322 L93.2119791,25.9780759 L94.8697493,25.9780759 Z M68.7322688,25.9776506 L70.1782458,28.070915 L71.6327286,25.9776506 L73.6400849,25.9776506 L71.011809,29.5415587 L71.011809,32.647007 L69.3531883,32.647007 L69.3531883,29.5339035 L66.7164067,25.9776506 L68.7322688,25.9776506 Z M104.77146,25.9772253 L104.77146,27.2029035 L101.581804,27.2029035 L101.581804,28.597846 L104.626862,28.597846 L104.626862,29.8226736 L101.581804,29.8226736 L101.581804,31.4302598 L104.839506,31.4302598 L104.839506,32.6465817 L99.9231837,32.6465817 L99.9231837,25.9772253 L104.77146,25.9772253 Z M16.992888,8.8250966 L10.0141733,24.0369228 L11.6678479,24.0369228 L17.0015551,12.3485833 L22.3491296,24.0369228 L24.000204,24.0369228 L16.992888,8.8250966 Z M125.113865,2.696965 C126.204415,2.696965 127.275415,2.976615 128.367665,3.553765 L128.367665,3.553765 L128.367665,4.714015 C126.926065,3.915865 126.182315,3.676165 125.216715,3.676165 C123.525215,3.676165 122.248515,4.793065 122.248515,6.272915 C122.248515,9.908365 128.945665,8.169265 128.945665,12.940315 C128.945665,15.038965 127.153015,16.675215 124.864815,16.675215 C123.712215,16.675215 122.495015,16.276565 121.261665,15.475865 L121.261665,15.475865 L121.261665,14.239965 C122.825665,15.335615 123.712215,15.697715 124.804465,15.697715 C126.473865,15.697715 127.770965,14.517915 127.770965,12.980265 C127.770965,9.107665 121.072115,10.804265 121.072115,6.311165 C121.072115,4.296665 122.886015,2.696965 125.113865,2.696965 Z M136.984115,2.69722 C138.078065,2.69722 139.149065,2.97687 140.240465,3.55402 L140.240465,3.55402 L140.240465,4.71427 C138.797165,3.91612 138.055965,3.67557 137.086115,3.67557 C135.398015,3.67557 134.118765,4.79332 134.118765,6.27317 C134.118765,9.90777 140.818465,8.16867 140.818465,12.94057 C140.818465,15.03922 139.026665,16.67462 136.736765,16.67462 C135.582465,16.67462 134.366115,16.27682 133.128515,15.47612 L133.128515,15.47612 L133.128515,14.24022 C134.695915,15.33587 135.582465,15.69797 136.676415,15.69797 C138.344965,15.69797 139.642915,14.51817 139.642915,12.98052 C139.642915,9.10792 132.944065,10.80452 132.944065,6.31142 C132.944065,4.29692 134.757115,2.69722 136.984115,2.69722 Z M53.396135,2.181525 L53.692785,2.775675 L59.876535,16.496375 L58.797035,16.496375 L56.677135,11.783125 L56.284435,10.905925 L53.399535,4.494375 L50.533335,10.905925 L50.140635,11.783125 L48.022435,16.496375 L46.940385,16.496375 L53.396135,2.181525 Z M68.158765,2.87759 C73.853765,2.87759 75.461965,6.69239 75.461965,9.68524 C75.461965,12.84214 73.635315,16.49629 68.333865,16.49629 L68.333865,16.49629 L63.466765,16.49629 L63.466765,2.87759 Z M84.3743,2.87759 C90.0693,2.87759 91.67835,6.69239 91.67835,9.68524 C91.67835,12.84214 89.8551,16.49629 84.55365,16.49629 L84.55365,16.49629 L79.6874,16.49629 L79.6874,2.87759 Z M99.422275,2.876995 C102.699875,2.876995 103.858425,4.573595 103.858425,6.391745 C103.858425,7.968495 103.013525,9.067545 101.305025,9.706745 C101.934025,10.044195 102.463575,10.823645 103.089175,11.783295 L103.089175,11.783295 L106.112625,16.496545 L104.896275,16.496545 L102.560475,12.761645 C100.950575,10.186145 100.441425,9.967695 98.834075,9.967695 L98.834075,9.967695 L97.026125,9.967695 L97.026125,16.496545 L95.985725,16.496545 L95.985725,2.876995 Z M116.676765,2.87759 L116.676765,3.75649 L110.413115,3.75649 L110.413115,9.09024 L116.519515,9.09024 L116.519515,9.97084 L110.413115,9.97084 L110.413115,15.61569 L116.833165,15.61569 L116.833165,16.49629 L109.374415,16.49629 L109.374415,2.87759 L116.676765,2.87759 Z M68.218265,3.75649 L64.507165,3.75649 L64.507165,15.61569 L68.276915,15.61569 C71.496715,15.61569 74.340815,13.52214 74.340815,9.68524 C74.340815,6.19089 71.848615,3.75649 68.218265,3.75649 L68.218265,3.75649 Z M84.43635,3.75649 L80.72525,3.75649 L80.72525,15.61569 L84.49415,15.61569 C87.7148,15.61569 90.55975,13.52214 90.55975,9.68524 C90.55975,6.19089 88.06585,3.75649 84.43635,3.75649 L84.43635,3.75649 Z M99.202975,3.755895 L97.026125,3.755895 L97.026125,9.086245 L99.245475,9.086245 C101.600825,9.086245 102.738125,8.050095 102.738125,6.411295 C102.738125,4.874495 101.658625,3.755895 99.202975,3.755895 L99.202975,3.755895 Z" id="Combined-Shape"></path>
            </g>
        </g>
    </g>
</svg>