<svg xmlns="http://www.w3.org/2000/svg" width="16" height="16" viewBox="0 0 16 16">
    <path fill="#25282D" fill-rule="nonzero" d="M16 15c0 .27-.096.505-.29.703a.943.943 0 0 1-.573.289L15 16H1a.953.953 0 0 1-.71-.297.974.974 0 0 1-.282-.57L0 15V2.5c0-.281.096-.518.29-.71a.952.952 0 0 1 .573-.282L1 1.5h4v-1a.48.48 0 0 1 .148-.352A.48.48 0 0 1 5.5 0a.48.48 0 0 1 .352.148c.074.075.12.16.139.254L6 .5v1h4v-1a.48.48 0 0 1 .148-.352A.48.48 0 0 1 10.5 0a.48.48 0 0 1 .352.148c.074.075.12.16.139.254L11 .5v1h4c.281 0 .518.096.71.29.162.16.255.351.282.573L16 2.5V15zm-1-8H1v8h14V7zM5 2.5H1V6h14V2.5h-4V3a.48.48 0 0 1-.148.352.48.48 0 0 1-.352.148.48.48 0 0 1-.352-.148.486.486 0 0 1-.139-.254L10 3v-.5H6V3a.48.48 0 0 1-.148.352.48.48 0 0 1-.352.148.48.48 0 0 1-.352-.148.486.486 0 0 1-.139-.254L5 3v-.5z"/>
</svg>
