<?xml version="1.0" encoding="UTF-8"?>
<svg width="18px" height="13px" viewBox="0 0 18 13" version="1.1" xmlns="http://www.w3.org/2000/svg" xmlns:xlink="http://www.w3.org/1999/xlink">
    <title>UBE logo</title>
    <g id="Offers" stroke="none" stroke-width="1" fill="none" fill-rule="evenodd" opacity="0.697666">
        <g id="1.1-Offer-StaySingle-Hover-1364" transform="translate(-932.000000, -960.000000)" stroke="#25282D" stroke-width="0.4">
            <g id="component/offer-tile/with-cta---default-1364-copy-4" transform="translate(40.000000, 725.000000)">
                <g id="Group" transform="translate(600.000000, 40.000000)">
                    <g id="Group-2" transform="translate(293.000000, 112.000000)">
                        <g id="list-item-2-copy-4" transform="translate(0.000000, 78.000000)">
                            <g id="SignIn-SignUp-WithUBE" transform="translate(0.000000, 6.000000)" opacity="0.550000012">
                                <g id="UBE-Logo">
                                    <path d="M3.78947369,0 C3.78947369,2.67251185 3.78947369,4.80744301 3.78947369,6.40479347 C3.78947369,8.80081915 5.75847492,10.9082778 8.63215238,10.9082778 C11.5058299,10.9082778 13.4736842,8.5513476 13.4736842,6.40479347 C13.4736842,4.97375737 13.4736842,2.83882622 13.4736842,0" id="Path"></path>
                                    <path d="M4.42105264,0 C4.42105264,2.67251185 4.42105264,4.80744301 4.42105264,6.40479347 C4.42105264,8.80081915 6.39005387,10.9082778 9.26373138,10.9082778 C12.1374089,10.9082778 14.1052631,8.5513476 14.1052631,6.40479347 C14.1052631,4.97375737 14.1052631,2.83882622 14.1052631,0" id="Path"></path>
                                    <path d="M5.05263159,0 C5.05263159,2.67251185 5.05263159,4.80744301 5.05263159,6.40479347 C5.05263159,8.80081915 7.02163282,10.9082778 9.89531031,10.9082778 C12.7689878,10.9082778 14.7368421,8.5513476 14.7368421,6.40479347 C14.7368421,4.97375737 14.7368421,2.83882622 14.7368421,0" id="Path"></path>
                                    <path d="M5.68421053,0 C5.68421053,2.67251185 5.68421053,4.80744301 5.68421053,6.40479347 C5.68421053,8.80081915 7.65321174,10.9082778 10.5268892,10.9082778 C13.4005667,10.9082778 15.3684211,8.5513476 15.3684211,6.40479347 C15.3684211,4.97375737 15.3684211,2.83882622 15.3684211,0" id="Path"></path>
                                    <path d="M6.31578948,0 C6.31578948,2.67251185 6.31578948,4.80744301 6.31578948,6.40479347 C6.31578948,8.80081915 8.28479074,10.9082778 11.1584682,10.9082778 C14.0321456,10.9082778 16,8.5513476 16,6.40479347 C16,4.97375737 16,2.83882622 16,0" id="Path"></path>
                                    <path d="M3.15789474,0 C3.15789474,2.67251185 3.15789474,4.80744301 3.15789474,6.40479347 C3.15789474,8.80081915 5.12689597,10.9082778 8.00057345,10.9082778 C10.8742509,10.9082778 12.8421053,8.5513476 12.8421053,6.40479347 C12.8421053,4.97375737 12.8421053,2.83882622 12.8421053,0" id="Path"></path>
                                    <path d="M2.52631579,0 C2.52631579,2.67251185 2.52631579,4.80744301 2.52631579,6.40479347 C2.52631579,8.80081915 4.49531703,10.9082778 7.36899453,10.9082778 C10.242672,10.9082778 12.2105263,8.5513476 12.2105263,6.40479347 C12.2105263,4.97375737 12.2105263,2.83882622 12.2105263,0" id="Path"></path>
                                    <path d="M1.89473684,0 C1.89473684,2.67251185 1.89473684,4.80744301 1.89473684,6.40479347 C1.89473684,8.80081915 3.86373808,10.9082778 6.73741556,10.9082778 C9.61109301,10.9082778 11.5789474,8.5513476 11.5789474,6.40479347 C11.5789474,4.97375737 11.5789474,2.83882622 11.5789474,0" id="Path"></path>
                                    <path d="M1.2631579,0 C1.2631579,2.67251185 1.2631579,4.80744301 1.2631579,6.40479347 C1.2631579,8.80081915 3.23215914,10.9082778 6.10583662,10.9082778 C8.97951409,10.9082778 10.9473684,8.5513476 10.9473684,6.40479347 C10.9473684,4.97375737 10.9473684,2.83882622 10.9473684,0" id="Path"></path>
                                    <path d="M0.631578948,0 C0.631578948,2.67251185 0.631578948,4.80744301 0.631578948,6.40479347 C0.631578948,8.80081915 2.60058019,10.9082778 5.47425767,10.9082778 C8.34793516,10.9082778 10.3157895,8.5513476 10.3157895,6.40479347 C10.3157895,4.97375737 10.3157895,2.83882622 10.3157895,0" id="Path"></path>
                                    <path d="M0,0 C0,2.67251185 0,4.80744301 0,6.40479347 C0,8.80081915 1.96900124,10.9082778 4.84267872,10.9082778 C7.71635624,10.9082778 9.68421052,8.5513476 9.68421052,6.40479347 C9.68421052,4.97375737 9.68421052,2.83882622 9.68421052,0" id="Path"></path>
                                </g>
                            </g>
                        </g>
                    </g>
                </g>
            </g>
        </g>
    </g>
</svg>