<svg xmlns="http://www.w3.org/2000/svg" width="16" height="16" viewBox="0 0 16 16">
    <path fill="#25282D" fill-rule="nonzero" d="M15.156 13.5c.23 0 .427-.08.594-.242a.804.804 0 0 0 .25-.602v-1.25c0-.25-.14-.453-.422-.61l-.422-.233-3.187-1.75c.583-.459.984-1.07 1.203-1.836.219-.766.328-1.399.328-1.899v-2.11c0-.353-.11-.708-.328-1.062a3.701 3.701 0 0 0-.86-.953 4.835 4.835 0 0 0-1.21-.695 3.676 3.676 0 0 0-1.383-.274c-.604 0-1.193.146-1.766.438A4.507 4.507 0 0 0 6.547 1.5l.64.031c.22.01.428.047.625.11A3.18 3.18 0 0 1 9.72 1c.729 0 1.375.234 1.937.703.563.469.844.89.844 1.266v2.11c0 .385-.086.887-.258 1.507-.172.62-.471 1.101-.898 1.445a.974.974 0 0 0-.305.39.913.913 0 0 0-.07.485c.01.167.062.32.156.461.094.14.214.253.36.336l3.187 1.735c.02.01.039.018.055.023a.098.098 0 0 1 .039.023c.041.01.083.029.125.055l.109.07v.891h-2.016c.146.115.253.255.32.422.068.167.133.36.196.578h1.656zm-3.5 2.5c.23 0 .427-.08.594-.242a.804.804 0 0 0 .25-.602v-1.265c0-.25-.14-.454-.422-.61l-.422-.234-3.14-1.735c.583-.468.976-1.083 1.18-1.843.202-.76.304-1.396.304-1.906v-2.11c0-.354-.107-.706-.32-1.055a3.688 3.688 0 0 0-.844-.945 4.564 4.564 0 0 0-1.195-.687A3.71 3.71 0 0 0 6.266 2.5a3.73 3.73 0 0 0-1.368.266 4.66 4.66 0 0 0-1.21.687c-.355.281-.641.596-.86.945-.219.35-.328.701-.328 1.055v2.11c0 .458.115 1.078.344 1.859.229.781.64 1.406 1.234 1.875l-3.234 1.75-.422.25C.14 13.464 0 13.66 0 13.89v1.265c0 .24.083.44.25.602A.824.824 0 0 0 .844 16h10.812zm-.156-1H1v-.89l.117-.079a.433.433 0 0 1 .133-.062c.01-.01.02-.018.031-.024a.07.07 0 0 1 .032-.008l3.234-1.765a.923.923 0 0 0 .36-.32.921.921 0 0 0 .155-.461.913.913 0 0 0-.07-.485 1.036 1.036 0 0 0-.289-.39c-.427-.334-.734-.81-.922-1.43-.187-.62-.281-1.128-.281-1.524V5.454c0-.364.284-.781.852-1.25.567-.469 1.205-.703 1.914-.703.729 0 1.367.234 1.914.703.547.469.82.886.82 1.25v2.11c0 .395-.078.903-.234 1.523-.157.62-.448 1.096-.875 1.43a.974.974 0 0 0-.305.39.913.913 0 0 0-.07.485c.01.166.062.32.156.46.094.141.213.253.36.336l3.14 1.735c.02.01.039.02.055.031.015.01.028.016.039.016l.125.062c.041.021.078.047.109.078V15z"/>
</svg>
